<svg xmlns="http://www.w3.org/2000/svg" viewBox="0 0 44.55 61.76"><defs><style>.cls-1{fill:#018184;}.cls-2{fill:#c12528;}</style></defs><g id="Layer_2" data-name="Layer 2"><g id="Layer_1-2" data-name="Layer 1"><path class="cls-1" d="M37.73,13.22l-.45-.09-1.06-.19L34.75.36l1.5.16Z"/><path class="cls-1" d="M40.82,14l-1.2-.35h0l-.32-.08L37.79.72,39.3.94Z"/><path class="cls-1" d="M44.33,15.27c-.66-.26-1.3-.5-1.93-.72L40.85,1.19c.79.13,1.58.27,2.39.43.08,1.92.19,3.67.3,5.27S43.91,11.28,44.33,15.27Z"/><path class="cls-1" d="M2,42.61,4,59.78l-2.46-.44Q.89,48.35,0,41.75C.69,42.06,1.37,42.34,2,42.61Z"/><path class="cls-1" d="M5.17,43.8,7.08,60.3l-1.5-.25-2-16.81C4.15,43.45,4.67,43.64,5.17,43.8Z"/><path class="cls-1" d="M8.28,44.79l1.86,16-1.51-.22L6.75,44.34Q7.53,44.6,8.28,44.79Z"/><path class="cls-2" d="M44.5,43.18a15.24,15.24,0,0,1-6.93,12.71,20.4,20.4,0,0,1-2.49,1.41l-.88-.85c-1.31-1.27-2.58-2.4-3.79-3.38l-4.6-3.6c-1.19-.91-2.28-1.77-3.28-2.55a8.69,8.69,0,0,0,1.61-.6,3.36,3.36,0,0,0,2.17-3.14,4.33,4.33,0,0,0-.21-1.35,5.53,5.53,0,0,0-.8-1.46,12.09,12.09,0,0,0-1.68-1.77l-5.27-4.53a17.82,17.82,0,0,1,4-.42,43.2,43.2,0,0,1,7.77.86,56.31,56.31,0,0,1,10.11,3.08L43.76,39a11.43,11.43,0,0,1,.45,1.48A12.33,12.33,0,0,1,44.5,43.18Z"/><path class="cls-2" d="M33.22.23l1.45,12.49-1.21-.12h-.1a115.24,115.24,0,0,0-17-1.36A64.86,64.86,0,0,0,6.52,12c.1-.36.22-.73.35-1.09a13.64,13.64,0,0,1,.84-1.83A15.5,15.5,0,0,1,9.58,6.33a15.64,15.64,0,0,1,4.8-3.67A21.66,21.66,0,0,1,20.76.56a43.57,43.57,0,0,1,7-.56C29.53,0,31.35.07,33.22.23Z"/><path class="cls-2" d="M44.55,36.94A67.86,67.86,0,0,0,32,33.12,53.85,53.85,0,0,0,22.15,32a22,22,0,0,0-7.68,1.22l-.25-.21c-1-.83-1.85-1.57-2.57-2.19-.88-.75-1.55-1.36-2-1.81a29.77,29.77,0,0,1-4.12-4.68A16.24,16.24,0,0,1,3.36,20a16.51,16.51,0,0,1-.67-4.77c0-.41,0-.83,0-1.24l1.1-.17A74.64,74.64,0,0,1,15,12.94c3.4,0,7,.16,10.67.49a3.54,3.54,0,0,0-1.43,2.79,4.92,4.92,0,0,0,.39,1.92,8.94,8.94,0,0,0,1.5,2.2,26.22,26.22,0,0,0,2.89,2.77c1.2,1,3.07,2.49,5.63,4.46l3.59,2.82c.55.43,1.11.92,1.7,1.46h0c.55.5,1.13,1,1.73,1.65a33.79,33.79,0,0,1,2.8,3.1C44.52,36.71,44.54,36.82,44.55,36.94Z"/><path class="cls-2" d="M35.76,60c-.82.26-1.66.49-2.51.68-.47.1-.94.2-1.41.28a49.26,49.26,0,0,1-9,.8A89.21,89.21,0,0,1,11.68,61L9.85,45.2l.55.13c.86.19,1.69.36,2.49.49a32.83,32.83,0,0,0,5.53.52h.51c1.74,1.4,4,3.16,6.72,5.26L31.28,56C32.68,57.15,34.17,58.47,35.76,60Z"/></g></g></svg>