<svg xmlns="http://www.w3.org/2000/svg" viewBox="0 0 438.07 438.07"><defs><style>.cls-1{fill:#c12528;}.cls-2{fill:#fff;}</style></defs><g id="Layer_2" data-name="Layer 2"><g id="Layer_1-2" data-name="Layer 1"><rect class="cls-1" width="438.07" height="438.07" rx="48.1"/><path class="cls-2" d="M290.39,130.17l-2.31-.46c-1.86-.36-3.71-.67-5.46-1L275.05,64c2.58.25,5.1.51,7.72.82Z"/><path class="cls-2" d="M306.3,134.29c-2.11-.62-4.17-1.24-6.17-1.8h-.06c-.56-.16-1.08-.31-1.64-.42L290.7,65.81c2.58.36,5.15.72,7.78,1.13Z"/><path class="cls-2" d="M324.38,140.72c-3.4-1.33-6.7-2.57-9.94-3.7l-8-68.79c4.07.67,8.13,1.39,12.3,2.21.42,9.89,1,18.9,1.55,27.14S322.21,120.18,324.38,140.72Z"/><path class="cls-2" d="M106.58,281.49l10.25,88.4c-4.12-.72-8.34-1.44-12.67-2.26q-3.47-56.61-8-90.57C99.69,278.66,103.19,280.1,106.58,281.49Z"/><path class="cls-2" d="M122.75,287.62l9.84,84.95c-2.53-.41-5.1-.82-7.73-1.29l-10.09-86.55C117.5,285.82,120.18,286.79,122.75,287.62Z"/><path class="cls-2" d="M138.76,292.71l9.58,82.18c-2.52-.36-5.15-.72-7.77-1.13l-9.68-83.36C133.56,291.27,136.19,292.05,138.76,292.71Z"/><path class="cls-2" d="M325.26,284.44a78.51,78.51,0,0,1-35.69,65.45,111,111,0,0,1-12.82,7.26l-4.54-4.41c-6.72-6.51-13.29-12.35-19.52-17.37L229,316.82q-9.15-7.05-16.9-13.16a44.62,44.62,0,0,0,8.3-3.05q11.18-5.48,11.16-16.17a22.38,22.38,0,0,0-1.07-7,29.15,29.15,0,0,0-4.12-7.5,58.17,58.17,0,0,0-8.67-9.11l-27.09-23.35a92.72,92.72,0,0,1,20.72-2.14c11,0,24.45,1.5,40,4.43s33,8.26,52,15.83l18,7.18a54.13,54.13,0,0,1,2.32,7.59A61.48,61.48,0,0,1,325.26,284.44Z"/><path class="cls-2" d="M267.17,63.29l7.47,64.3c-2.16-.25-4.22-.46-6.23-.61l-.52,0a592.4,592.4,0,0,0-87.47-7,334.45,334.45,0,0,0-50.72,3.81c.52-1.85,1.13-3.76,1.8-5.61a71,71,0,0,1,4.33-9.42,79.64,79.64,0,0,1,9.63-14q9.34-11,24.71-18.89A111.39,111.39,0,0,1,203,65a223.83,223.83,0,0,1,36.14-2.89C248.17,62.1,257.55,62.46,267.17,63.29Z"/><path class="cls-2" d="M325.51,252.27Q290,238.14,260.7,232.61t-50.54-5.56q-22.69,0-39.53,6.3l-1.26-1.07c-5.13-4.3-9.56-8.08-13.28-11.28q-6.72-5.83-10.39-9.32-13.6-12.94-21.2-24.13a83.16,83.16,0,0,1-11.06-22.75A85,85,0,0,1,110,140.28q0-3.22.24-6.39l5.65-.87a378.91,378.91,0,0,1,57.65-4.31c17.53,0,35.9.85,55,2.53q-7.4,6.19-7.39,14.37a25,25,0,0,0,2.05,9.91q2.06,4.83,7.71,11.31a132.91,132.91,0,0,0,14.89,14.24q9.21,7.76,29,23l18.47,14.48c2.81,2.26,5.7,4.74,8.74,7.52l0,0h0c2.87,2.59,5.86,5.43,8.93,8.48a176.32,176.32,0,0,1,14.44,16C325.38,251.13,325.45,251.7,325.51,252.27Z"/><path class="cls-2" d="M280.25,371c-4.22,1.34-8.55,2.52-12.92,3.5-2.42.51-4.84,1-7.26,1.44a253.57,253.57,0,0,1-46.24,4.12,459.39,459.39,0,0,1-57.56-4.17l-9.42-81.09c1,.25,1.9.46,2.83.67,4.43,1,8.7,1.85,12.82,2.52A169.25,169.25,0,0,0,191,300.7h2.63c9,7.2,20.49,16.27,34.6,27.08l29,22.76C264.39,356.35,272.06,363.15,280.25,371Z"/></g></g></svg>