<svg xmlns="http://www.w3.org/2000/svg" viewBox="0 0 822.97 155.78"><defs><style>.cls-1{fill:#c00;}.cls-2{fill:#fff;}</style></defs><g id="Layer_2" data-name="Layer 2"><g id="Layer_1-2" data-name="Layer 1"><path class="cls-1" d="M78.64,84.58A32.51,32.51,0,0,1,73.34,103a34.67,34.67,0,0,1-15.28,12.48q-10,4.44-23.42,4.45a95.64,95.64,0,0,1-18.82-1.56A70.65,70.65,0,0,1,0,112.88V86.1A90.51,90.51,0,0,0,18.05,93a67.71,67.71,0,0,0,17.2,2.47q6.77,0,9.91-2.32a7.12,7.12,0,0,0,3.15-6,6.55,6.55,0,0,0-1.27-4A14.69,14.69,0,0,0,43,79.71Q40.17,78,28,72.56q-11-4.94-16.47-9.58A29.33,29.33,0,0,1,3.42,52.33,35,35,0,0,1,.77,38.11q0-15.36,11.29-24t31-8.6q17.45,0,35.56,8l-9.29,23.2Q53.6,29.58,42.16,29.59q-5.91,0-8.6,2.05a6.21,6.21,0,0,0-2.69,5.1q0,3.27,3.42,5.86T52.84,52Q67.35,58.5,73,65.91T78.64,84.58Z"/><path class="cls-1" d="M149,118.35v-47Q149,54,138.62,54q-7.37,0-10.87,6.13t-3.49,20.35v37.87h-30V0h30V16.81q0,11.42-1.23,26h1.38a24.68,24.68,0,0,1,10.22-9.43,32.47,32.47,0,0,1,13.75-2.74q14.58,0,22.69,8.33t8.1,23.32v56.05Z"/><path class="cls-1" d="M282.7,75.07q0,21.15-11.49,33t-32.14,11.83q-19.81,0-31.52-12.1T195.84,75.07q0-21.06,11.48-32.74t32.22-11.68a46.29,46.29,0,0,1,22.65,5.4,37.12,37.12,0,0,1,15.17,15.48Q282.7,61.61,282.7,75.07Zm-56.37,0q0,11.12,3,16.93t10.06,5.82q7,0,9.87-5.82t2.88-16.93q0-11-2.92-16.65t-10-5.63q-6.91,0-9.91,5.59T226.33,75.07Z"/><path class="cls-1" d="M374.7,118.35l-9.83-41.07-2.3-12.4-1.54-10h-.46q-3.76,21.3-5.07,26.85l-8.83,36.58H315.1L291.37,32.17h29.57L328,65.26a200.18,200.18,0,0,1,3.91,28.3h.46q.24-7,4.23-26.62l8.06-34.77h33.18l7.37,35.22a261.3,261.3,0,0,1,4.46,26.17h.46q.45-5.78,1.53-14.42a123.57,123.57,0,0,1,2.38-13.88l7.68-33.09h29L406.8,118.35Z"/><path class="cls-2" d="M475.08,77.89v40.46H444.74V7.15h36.79q45.76,0,45.77,32.86,0,19.32-19,29.89L541,118.35H506.56l-23.8-40.46Zm0-22.59h5.68q15.9,0,15.9-13.92,0-11.49-15.59-11.49h-6Z"/><path class="cls-2" d="M606.17,118.35,600.41,107h-.61q-6.07,7.45-12.37,10.19t-16.28,2.74q-12.28,0-19.35-7.31T544.73,92q0-13.77,9.68-20.5t28-7.57L597,63.51V62.3q0-10.65-10.6-10.65-9.52,0-24.19,6.39l-8.68-19.63q15.19-7.75,38.4-7.76,16.74,0,25.92,8.22t9.17,23v56.51ZM583.9,98.88a13.64,13.64,0,0,0,9.33-3.42,11.33,11.33,0,0,0,3.88-8.9V79.87l-6.91.3q-14.84.54-14.83,10.8Q575.37,98.89,583.9,98.88Z"/><path class="cls-2" d="M729.51,32.17V46.55L717.6,50.89a20.73,20.73,0,0,1,2.46,10.27q0,13.92-9.87,21.6t-29.45,7.68a38,38,0,0,1-7.68-.61A7.8,7.8,0,0,0,672,93.56q0,2.2,3.61,3.38A31,31,0,0,0,685,98.12h14.44q29.26,0,29.26,24.42,0,15.75-13.55,24.49t-38.06,8.75q-18.51,0-28.53-6.12t-10-17.61q0-15.45,19.35-19.93a17.52,17.52,0,0,1-6.95-5.4,11.5,11.5,0,0,1-.73-14.49c1.49-2.06,4.58-4.5,9.3-7.34a23.08,23.08,0,0,1-10.64-9.28Q645,69.3,645,60.24q0-14.07,9.68-21.83t27.64-7.76q2.39,0,8.22.54t8.6,1Zm-65.59,96.91q0,3.64,4,5.9t10.67,2.24q10.9,0,17.47-2.7t6.57-7q0-3.42-4-4.83t-11.45-1.41H675.44a14.33,14.33,0,0,0-8.18,2.25C665,125.06,663.92,126.9,663.92,129.08Zm9.45-68.69q0,13.24,9.29,13.24a7.68,7.68,0,0,0,6.64-3.27q2.36-3.27,2.35-9.81,0-13.39-9-13.39Q673.38,47.16,673.37,60.39Z"/><path class="cls-2" d="M784.73,119.88q-21.74,0-33.76-11.45T739,75.84Q739,54,750.09,42.33t31.8-11.68q19.65,0,30.37,10.16T823,70.05V83.29H769.29a14.65,14.65,0,0,0,5.34,11.33q5,4.11,13.71,4.11a66.74,66.74,0,0,0,14.55-1.48,72.81,72.81,0,0,0,14.4-5.06v21.37a53.32,53.32,0,0,1-14.59,5A102.22,102.22,0,0,1,784.73,119.88Zm-1.77-69a12.54,12.54,0,0,0-8.87,3.31q-3.57,3.3-4.18,10.38h25.8q-.15-6.24-3.57-10A11.86,11.86,0,0,0,783,50.89Z"/></g></g></svg>